<svg width="59" height="64" viewBox="0 0 59 64" fill="none" xmlns="http://www.w3.org/2000/svg">
<g clip-path="url(#clip0)">
<path d="M29.0133 0.000244141C13.056 0.000244141 0 14.3497 0 31.8879C0 49.4261 13.056 63.7755 29.0133 63.7755C44.9707 63.7755 58.0267 49.4261 58.0267 31.8879C58.0267 14.3497 44.9707 0.000244141 29.0133 0.000244141ZM29.0133 9.56654C33.9456 9.56654 37.7173 13.7119 37.7173 19.1328C37.7173 24.5537 33.9456 28.6991 29.0133 28.6991C24.0811 28.6991 20.3093 24.5537 20.3093 19.1328C20.3093 13.7119 24.0811 9.56654 29.0133 9.56654ZM29.0133 54.847C21.76 54.847 15.3771 50.7017 11.6053 44.643C11.6053 38.2654 23.2107 34.7578 29.0133 34.7578C34.816 34.7578 46.4213 38.2654 46.4213 44.643C42.6496 50.7016 36.2667 54.847 29.0133 54.847Z" fill="white"/>
</g>
<defs>
<clipPath id="clip0">
<rect width="58.0267" height="63.7753" fill="white" transform="translate(0 0.000244141)"/>
</clipPath>
</defs>
</svg>
