<svg width="26" height="17" viewBox="0 0 26 17" fill="none" xmlns="http://www.w3.org/2000/svg">
<g clip-path="url(#clip0)">
<path d="M20.0512 0H5.37399C2.5602 0 0.270996 1.4743 0.270996 3.28644V12.7389C0.270996 14.551 2.5602 16.0253 5.37399 16.0253H20.0512C22.8649 16.0253 25.1541 14.551 25.1541 12.7389V3.28644C25.1541 1.4743 22.8649 0 20.0512 0ZM23.6961 12.7389C23.6961 14.0332 22.061 15.0863 20.0512 15.0863H5.37399C3.36414 15.0863 1.72899 14.0332 1.72899 12.7389V3.28644C1.72899 1.99205 3.36414 0.938982 5.37399 0.938982H20.0512C22.061 0.938982 23.6961 1.99205 23.6961 3.28644V12.7389Z" fill="#031C2B"/>
<path d="M19.2368 10.0751L17.7012 9.48174C16.9232 9.18107 15.9316 9.25967 15.2899 9.67291C15.0057 9.85598 14.5432 9.85595 14.259 9.67291L10.1351 7.01707C9.8509 6.83403 9.8509 6.53618 10.1351 6.35311C10.7768 5.93987 10.8989 5.30126 10.432 4.80016L9.51065 3.81122C8.95069 3.21021 7.73584 3.01456 6.80243 3.37519L6.07474 3.65639L6.01127 3.69726C5.0609 4.30935 4.95539 5.34612 5.71413 6.61659C6.399 7.7634 7.725 9.00602 9.44782 10.1155C11.1706 11.2251 13.1001 12.0791 14.8808 12.5201C15.7511 12.7357 16.5506 12.8429 17.2542 12.8429C18.1455 12.8429 18.8827 12.6708 19.4137 12.3288L19.4772 12.2879L19.9139 11.8192C20.4738 11.2181 20.1701 10.4357 19.2368 10.0751ZM18.6637 11.3361L18.3259 11.6986C17.7988 11.9879 16.7169 11.9689 15.4042 11.6437C13.8097 11.2488 12.0605 10.4703 10.4788 9.45163C8.89703 8.43296 7.68821 7.30643 7.07492 6.27953C6.57007 5.43416 6.54052 4.73737 6.98973 4.39787L7.55261 4.18037C7.79654 4.0861 8.11409 4.13724 8.26047 4.29433L9.18178 5.28327C9.30381 5.41425 9.27193 5.58114 9.10421 5.68916C8.69116 5.95517 8.46367 6.30889 8.46367 6.6851C8.46367 7.06132 8.69111 7.41501 9.10421 7.68102L13.2281 10.3369C13.6411 10.6029 14.1903 10.7494 14.7745 10.7494C15.3586 10.7494 15.9078 10.6029 16.3209 10.3369C16.4886 10.2289 16.7476 10.2083 16.9511 10.2869L18.4867 10.8803C18.7306 10.9745 18.81 11.179 18.6637 11.3361Z" fill="#031C2B"/>
</g>
<defs>
<clipPath id="clip0">
<rect width="24.8831" height="16.0253" fill="white" transform="translate(0.270996)"/>
</clipPath>
</defs>
</svg>
