<svg width="26" height="17" viewBox="0 0 26 17" fill="none" xmlns="http://www.w3.org/2000/svg">
<g clip-path="url(#clip0)">
<path d="M6.62366 5.25851C6.83838 5.25851 7.01246 5.1464 7.01246 5.00812V4.75772C7.01246 4.61944 6.83838 4.50732 6.62366 4.50732C6.40895 4.50732 6.23486 4.61944 6.23486 4.75772V5.00812C6.23486 5.1464 6.40895 5.25851 6.62366 5.25851Z" fill="#031C2B"/>
<path d="M9.73401 5.25851C9.94873 5.25851 10.1228 5.1464 10.1228 5.00812V4.75772C10.1228 4.61944 9.94873 4.50732 9.73401 4.50732C9.5193 4.50732 9.34521 4.61944 9.34521 4.75772V5.00812C9.34521 5.1464 9.5193 5.25851 9.73401 5.25851Z" fill="#031C2B"/>
<path d="M13.4414 2.31586C16.3385 1.33854 19.9005 1.7844 22.0183 3.38946C24.5201 5.28558 24.1616 8.12885 21.2174 9.74008L24.7197 14.0582C24.7199 14.0584 24.7201 14.0587 24.7204 14.059C25.1177 14.5494 24.8225 15.1544 24.061 15.4103C23.6957 15.5339 23.2686 15.5583 22.8752 15.4779C22.4813 15.399 22.1527 15.222 21.9627 14.9861L18.4604 10.6663C16.9278 10.9257 15.3038 10.8427 13.8539 10.4309L14.1673 9.9727C15.5474 10.3649 17.1019 10.4208 18.5413 10.1299C18.721 10.0935 18.9155 10.1453 19.0028 10.2529L22.6524 14.7542C22.6582 14.7618 22.6642 14.7693 22.6706 14.7766C22.8791 15.0184 23.3524 15.1057 23.7279 14.9714C24.1034 14.8372 24.2388 14.5323 24.0304 14.2905L20.3811 9.78941C20.2939 9.6819 20.339 9.54959 20.488 9.47541C22.8692 8.28851 23.5877 6.17333 22.1934 4.45452C20.6033 2.49436 16.847 1.73551 13.8034 2.75956L13.4414 2.31586Z" fill="#031C2B"/>
<path d="M6.64342 6.1811C6.57582 6.31233 6.68614 6.45403 6.88992 6.49759L7.05361 6.53265C7.78411 6.6884 8.57308 6.6884 9.30359 6.53265L9.46767 6.49734C9.67164 6.45378 9.7822 6.31196 9.71455 6.1806C9.6469 6.04923 9.4267 5.97803 9.22272 6.02159L9.05787 6.0569C8.48692 6.17856 7.87028 6.17856 7.29933 6.0569L7.13487 6.02184C6.93104 5.97837 6.71107 6.04954 6.64357 6.18085C6.64352 6.18091 6.64347 6.181 6.64342 6.1811V6.1811Z" fill="#031C2B"/>
<path d="M20.6204 6.25977H19.8428C19.8409 7.36557 18.4495 8.26168 16.7324 8.26293V8.76372C18.8787 8.76222 20.6181 7.64204 20.6204 6.25977Z" fill="#031C2B"/>
<path d="M24.1195 2.75458C24.3343 2.75454 24.5083 2.64243 24.5082 2.50412C24.5082 2.43773 24.4673 2.3741 24.3944 2.32715L22.0616 0.82478C21.9098 0.727 21.6636 0.727032 21.5118 0.824842C21.4389 0.871792 21.3979 0.935423 21.3979 1.00181V2.50418C21.3979 2.64246 21.572 2.75458 21.7867 2.75458H24.1195ZM22.1755 1.60626L23.181 2.25379H22.1755V1.60626Z" fill="#031C2B"/>
<path d="M21.6088 14.0086V11.2225C21.6088 10.3906 20.4537 9.73936 19.2616 9.42837C19.2631 9.33228 19.1568 9.24949 19.0101 9.23231L18.1096 9.039V8.81365C18.266 8.77114 18.4162 8.71969 18.5583 8.6599C19.0404 8.45173 19.4507 8.18177 19.7636 7.8669C20.3175 9.77304 23.166 11.029 26.1257 10.6722C29.0855 10.3155 31.0357 8.481 30.4817 6.57486C29.9277 4.66873 27.0793 3.41274 24.1195 3.76953C22.5832 3.95473 21.2442 4.55567 20.4424 5.41979V4.46178H20.8312C21.0459 4.46178 21.22 4.34966 21.22 4.21138C21.2172 2.69095 19.304 1.45882 16.9432 1.45703H12.9926C11.2248 1.45703 9.94482 2.95289 9.94482 3.96098V4.40118C9.94837 5.18839 10.3646 5.95175 11.126 6.5676C11.2098 7.41434 11.9008 8.18772 12.9953 8.6599C13.1374 8.71969 13.2876 8.77114 13.444 8.81365V9.039L12.5436 9.23231C12.4266 9.25735 12.335 9.31663 12.2967 9.39206C12.2939 9.40358 12.2924 9.41522 12.2924 9.42686C11.0867 9.74036 9.94482 10.3924 9.94482 11.2225V16.2304C9.94482 16.3686 10.1189 16.4808 10.3336 16.4808H21.22C21.4347 16.4808 21.6088 16.3686 21.6088 16.2304V14.3243L23.2779 15.4058C23.3508 15.4528 23.4497 15.4792 23.5528 15.4792C23.6039 15.4793 23.6545 15.4728 23.7017 15.4601C23.847 15.4214 23.9416 15.33 23.9416 15.2288V13.1042C23.9416 13.0029 23.847 12.9116 23.7017 12.8728C23.5564 12.834 23.3891 12.8555 23.2779 12.9271L21.6088 14.0086ZM18.2651 9.60014L16.8938 10.8363L16.3266 10.4713L17.8262 9.50599L18.2651 9.60014ZM15.7768 10.1172L14.2216 9.11562V8.95186C14.3405 8.96244 14.4604 8.96814 14.5805 8.96889H16.9731C17.0932 8.96814 17.2131 8.96244 17.332 8.95186V9.11562L15.7768 10.1172ZM16.1656 11.0757V13.3213L15.7768 13.4465L15.388 13.3213V11.0757L15.7768 10.8253L16.1656 11.0757ZM25.108 4.21138C27.6847 4.21138 29.7736 5.55666 29.7736 7.21612C29.7736 8.87559 27.6847 10.2209 25.108 10.2209C22.5313 10.2209 20.4424 8.87559 20.4424 7.21612C20.4452 5.55738 22.5324 4.21316 25.108 4.21138ZM20.4206 3.96098H19.3643C18.1034 3.60893 17.3752 2.50869 17.0828 1.96208C18.8086 2.00709 20.2257 2.85574 20.4206 3.96098ZM16.2605 1.95782C16.5965 2.70413 17.1973 3.3899 18.0155 3.96098H17.7597C15.9207 3.78421 15.2768 2.52547 15.077 1.95782H16.2605ZM14.2776 1.95782C14.4652 2.6466 14.9492 3.28764 15.6746 3.80799C14.4622 3.50304 13.6118 2.79076 13.4658 1.95782H14.2776ZM10.7224 4.40118V3.96098C10.7224 3.16272 11.6392 2.15614 12.6882 1.98562C12.7586 2.43263 12.999 2.86159 13.388 3.23459L11.4137 5.98894C10.9766 5.50639 10.7386 4.95978 10.7224 4.40118V4.40118ZM13.4265 8.24275C12.5205 7.85197 11.9537 7.20883 11.8974 6.50751L13.9362 3.66276C14.7351 4.17467 15.8163 4.46193 16.9432 4.46178H19.6648V6.39282C19.6658 7.13656 19.0886 7.83125 18.1271 8.24325C17.7855 8.39023 17.384 8.46866 16.9731 8.4686H14.5805C14.1696 8.46851 13.768 8.38992 13.4265 8.24275V8.24275ZM13.7275 9.50549L15.227 10.4713L14.6602 10.8363L13.2885 9.60014L13.7275 9.50549ZM20.8312 15.98H19.276V12.4744H18.4984V15.98H13.0552V12.4744H12.2776V15.98H10.7224V11.2225C10.7224 10.6435 11.6668 10.1207 12.6408 9.87733L14.2943 11.3679C14.3607 11.4279 14.4646 11.466 14.5785 11.4721H14.6104V13.4753C14.6096 13.5706 14.693 13.658 14.8254 13.7006L15.603 13.951C15.7124 13.9862 15.8412 13.9862 15.9506 13.951L16.7282 13.7006C16.8603 13.6581 16.9435 13.5711 16.9432 13.476V11.4728H16.9751C17.089 11.4667 17.193 11.4286 17.2593 11.3687L18.9129 9.87808C19.9043 10.1242 20.8312 10.6368 20.8312 11.2225V15.98ZM23.164 14.6243L22.4533 14.1666L23.164 13.7089V14.6243Z" fill="#031C2B"/>
<path d="M16.3433 12.019H18.6761V12.5198H16.3433V12.019Z" fill="#031C2B"/>
<path d="M16.3433 13.0205H19.4537V13.5213H16.3433V13.0205Z" fill="#031C2B"/>
<path d="M16.3433 14.0225H20.6201V14.5233H16.3433V14.0225Z" fill="#031C2B"/>
</g>
<defs>
<clipPath id="clip0">
<rect width="24.8831" height="16.0253" fill="white" transform="translate(0.791504)"/>
</clipPath>
</defs>
</svg>
