<svg width="164" height="74" viewBox="0 0 164 74" fill="none" xmlns="http://www.w3.org/2000/svg">
<path d="M0 36.8075C0 16.4793 16.4793 0 36.8075 0H127.033C147.361 0 163.84 16.4793 163.84 36.8075C163.84 57.1356 147.361 73.6149 127.033 73.6149H36.8075C16.4793 73.6149 0 57.1356 0 36.8075Z" fill="black"/>
<path d="M88.7091 53.7972C86.1411 53.7972 83.8851 53.3292 81.9411 52.3932C80.0211 51.4332 78.5331 50.1012 77.4771 48.3972C76.4451 46.6932 75.9291 44.7372 75.9291 42.5292C75.9291 39.6012 76.6011 36.9972 77.9451 34.7172C79.3131 32.4132 81.1971 30.6252 83.5971 29.3532C86.0211 28.0812 88.7571 27.4452 91.8051 27.4452C94.3731 27.4452 96.6171 27.9252 98.5371 28.8852C100.481 29.8212 101.969 31.1412 103.001 32.8452C104.057 34.5492 104.585 36.5052 104.585 38.7132C104.585 41.6412 103.901 44.2572 102.533 46.5612C101.189 48.8412 99.3051 50.6172 96.8811 51.8892C94.4811 53.1612 91.7571 53.7972 88.7091 53.7972ZM89.4291 46.9212C90.7731 46.9212 91.9371 46.5732 92.9211 45.8772C93.9291 45.1812 94.6971 44.2452 95.2251 43.0692C95.7531 41.8932 96.0171 40.6092 96.0171 39.2172C96.0171 37.7292 95.5731 36.5412 94.6851 35.6532C93.8211 34.7652 92.6211 34.3212 91.0851 34.3212C89.7411 34.3212 88.5651 34.6692 87.5571 35.3652C86.5731 36.0612 85.8171 36.9972 85.2891 38.1732C84.7611 39.3492 84.4971 40.6332 84.4971 42.0252C84.4971 43.5132 84.9291 44.7012 85.7931 45.5892C86.6811 46.4772 87.8931 46.9212 89.4291 46.9212ZM142.049 28.0212L137.081 53.2212H129.341L131.573 41.7372L124.481 50.9532H120.737L116.849 41.8812L114.581 53.2212H106.841L111.881 28.0212H118.793L124.265 41.4132L134.813 28.0212H142.049Z" fill="#FBFF00"/>
<path d="M25.6954 42.409H45.1203C45.4779 42.409 45.7678 42.0564 45.7678 41.6214V38.4708C45.7678 38.0357 45.4779 37.6831 45.1203 37.6831H25.6954C25.3377 37.6831 25.0479 38.0357 25.0479 38.4708V41.6214C25.0479 42.0564 25.3377 42.409 25.6954 42.409ZM34.7603 39.2584H38.6453C39.0029 39.2584 39.2928 39.6111 39.2928 40.0461C39.2928 40.4811 39.0029 40.8337 38.6453 40.8337H34.7603C34.4027 40.8337 34.1128 40.4811 34.1128 40.0461C34.1128 39.6111 34.4027 39.2584 34.7603 39.2584ZM30.8753 39.2584H32.1703C32.5279 39.2584 32.8178 39.6111 32.8178 40.0461C32.8178 40.4811 32.5279 40.8337 32.1703 40.8337H30.8753C30.5177 40.8337 30.2278 40.4811 30.2278 40.0461C30.2278 39.6111 30.5177 39.2584 30.8753 39.2584Z" fill="#FBFF00"/>
<path d="M23.7525 44.7702C23.7554 44.1873 23.9353 43.6262 24.2576 43.1949C23.9353 42.7635 23.7554 42.2025 23.7525 41.6196V38.469C23.7517 37.9977 23.8667 37.5369 24.0828 37.1457C23.8722 36.8597 23.7548 36.4899 23.7525 36.106V35.3184C23.1939 35.8338 22.5112 36.1106 21.8101 36.106V45.5578H23.8691C23.7937 45.3052 23.7543 45.0389 23.7525 44.7702Z" fill="#FBFF00"/>
<path d="M23.7526 20.3545H21.8101V21.9298C22.5112 21.9252 23.1939 22.202 23.7526 22.7174V20.3545Z" fill="#FBFF00"/>
<path d="M23.7526 32.169V25.8678C23.7526 24.5628 22.8829 23.5049 21.8101 23.5049V34.532C22.8829 34.532 23.7526 33.4741 23.7526 32.169Z" fill="#FBFF00"/>
<path d="M25.6954 45.5587H45.1203C45.4779 45.5587 45.7678 45.2061 45.7678 44.771C45.7678 44.336 45.4779 43.9834 45.1203 43.9834H25.6954C25.3377 43.9834 25.0479 44.336 25.0479 44.771C25.0479 45.2061 25.3377 45.5587 25.6954 45.5587Z" fill="#FBFF00"/>
<path d="M47.0625 60.5245C47.0625 60.9595 47.3524 61.3121 47.71 61.3121H50.3C50.6576 61.3121 50.9475 60.9595 50.9475 60.5245V59.7368H47.0625V60.5245Z" fill="#FBFF00"/>
<path d="M23.7529 60.5245C23.7529 60.9595 24.0428 61.3121 24.4004 61.3121H26.9904C27.348 61.3121 27.6379 60.9595 27.6379 60.5245V59.7368H23.7529V60.5245Z" fill="#FBFF00"/>
<path d="M45.1203 36.1075H45.7678V20.3545H25.0479V36.1075H45.1203ZM43.1778 23.5051C43.1778 23.0701 43.4677 22.7174 43.8253 22.7174C44.1829 22.7174 44.4728 23.0701 44.4728 23.5051V32.1692C44.4728 32.6043 44.1829 32.9569 43.8253 32.9569C43.4677 32.9569 43.1778 32.6043 43.1778 32.1692V23.5051ZM40.5878 23.5051C40.5878 23.0701 40.8777 22.7174 41.2353 22.7174C41.5929 22.7174 41.8828 23.0701 41.8828 23.5051V32.1692C41.8828 32.6043 41.5929 32.9569 41.2353 32.9569C40.8777 32.9569 40.5878 32.6043 40.5878 32.1692V23.5051ZM28.9328 28.231C28.9338 27.2513 29.1849 26.2963 29.6516 25.4978L29.1206 24.852C28.9564 24.6522 28.8922 24.361 28.9523 24.0881C29.0125 23.8151 29.1877 23.6019 29.4121 23.5288C29.6364 23.4557 29.8758 23.5337 30.0401 23.7335L30.571 24.3794C31.9169 23.2187 33.7187 23.2187 35.0647 24.3794L35.5956 23.7335C35.8495 23.4247 36.2612 23.4247 36.515 23.7335C36.7689 24.0424 36.7689 24.5431 36.515 24.852L35.9841 25.4978C36.9383 27.1351 36.9383 29.3269 35.9841 30.9641L36.515 31.61C36.6376 31.7579 36.7066 31.9592 36.7066 32.1692C36.7066 32.3793 36.6376 32.5806 36.515 32.7285C36.3935 32.8776 36.228 32.9615 36.0553 32.9615C35.8827 32.9615 35.7172 32.8776 35.5956 32.7285L35.0647 32.0826C33.7187 33.2433 31.9169 33.2433 30.571 32.0826L30.0401 32.7285C29.9185 32.8776 29.753 32.9615 29.5803 32.9615C29.4077 32.9615 29.2422 32.8776 29.1206 32.7285C28.998 32.5806 28.9291 32.3793 28.9291 32.1692C28.9291 31.9592 28.998 31.7579 29.1206 31.61L29.6516 30.9641C29.1849 30.1657 28.9338 29.2106 28.9328 28.231Z" fill="#FBFF00"/>
<path d="M32.8175 31.3813C34.2479 31.3813 35.4075 29.9707 35.4075 28.2307C35.4075 26.4907 34.2479 25.0801 32.8175 25.0801C31.3871 25.0801 30.2275 26.4907 30.2275 28.2307C30.2275 29.9707 31.3871 31.3813 32.8175 31.3813Z" fill="#FBFF00"/>
<path d="M47.0627 36.1075C47.0604 36.4914 46.943 36.8612 46.7324 37.1472C46.9485 37.5383 47.0635 37.9992 47.0627 38.4704V41.621C47.0598 42.2039 46.8799 42.765 46.5576 43.1963C46.8799 43.6277 47.0598 44.1887 47.0627 44.7716C47.0609 45.0403 47.0215 45.3067 46.9461 45.5593H51.5951V20.3545H47.0627V36.1075Z" fill="#FBFF00"/>
<path d="M21.8101 47.1338V55.0103H31.5225V47.1338H21.8101ZM24.4001 51.8597C24.0424 51.8597 23.7526 51.507 23.7526 51.072C23.7526 50.637 24.0424 50.2844 24.4001 50.2844C24.7577 50.2844 25.0475 50.637 25.0475 51.072C25.0475 51.507 24.7577 51.8597 24.4001 51.8597ZM26.3425 53.435C25.9849 53.435 25.695 53.0823 25.695 52.6473C25.695 52.2123 25.9849 51.8597 26.3425 51.8597C26.7001 51.8597 26.99 52.2123 26.99 52.6473C26.99 53.0823 26.7001 53.435 26.3425 53.435ZM28.285 50.2844C28.6426 50.2844 28.9325 50.637 28.9325 51.072C28.9325 51.507 28.6426 51.8597 28.285 51.8597C27.9274 51.8597 27.6375 51.507 27.6375 51.072C27.6375 50.637 27.9274 50.2844 28.285 50.2844ZM26.3425 48.7091C26.7001 48.7091 26.99 49.0617 26.99 49.4967C26.99 49.9317 26.7001 50.2844 26.3425 50.2844C25.9849 50.2844 25.695 49.9317 25.695 49.4967C25.695 49.0617 25.9849 48.7091 26.3425 48.7091Z" fill="#FBFF00"/>
<path d="M54.8326 17.2036H19.8677C19.5101 17.2036 19.2202 17.5563 19.2202 17.9913V57.3738C19.2202 57.8088 19.5101 58.1614 19.8677 58.1614H54.8326C55.1902 58.1614 55.4801 57.8088 55.4801 57.3738V17.9913C55.4801 17.5563 55.1902 17.2036 54.8326 17.2036ZM52.8901 55.7985C52.8901 56.2335 52.6002 56.5861 52.2426 56.5861H21.1627C20.8051 56.5861 20.5152 56.2335 20.5152 55.7985V19.5666C20.5152 19.1316 20.8051 18.7789 21.1627 18.7789H52.2426C52.6002 18.7789 52.8901 19.1316 52.8901 19.5666V55.7985Z" fill="#FBFF00"/>
<path d="M32.8179 47.1338V55.0103H51.5953V47.1338H45.1203H32.8179Z" fill="#FBFF00"/>
</svg>
