<svg width="26" height="17" viewBox="0 0 26 17" fill="none" xmlns="http://www.w3.org/2000/svg">
<g clip-path="url(#clip0)">
<path d="M25.5697 7.47905L20.9785 4.95403C20.9839 4.93676 20.9893 4.91949 20.9946 4.89876V1.59655C20.9893 1.39966 20.7479 1.24077 20.4422 1.23386H17.8784C17.5835 1.23386 17.3421 1.40311 17.3421 1.59655V2.96441L13.6681 0.947159C13.4697 0.836624 13.1747 0.836624 12.9709 0.947159L1.06932 7.47559C0.83869 7.59649 0.811872 7.81411 0.999594 7.96264C1.18732 8.11117 1.52521 8.12844 1.75584 8.00754C1.76121 8.00409 1.76121 8.00409 1.76657 8.00063L13.3195 1.66563L17.4547 3.93504L19.9273 5.28909L24.8778 8.00409C25.103 8.12844 25.4409 8.11117 25.634 7.96609C25.8218 7.82101 25.7949 7.6034 25.5697 7.47905ZM19.9166 4.37027L18.4148 3.55508V1.92815H19.9166V4.37027Z" fill="#031C2B"/>
<path d="M23.2044 8.177L21.6972 7.34799L13.6681 2.93007C13.4697 2.81953 13.1747 2.81953 12.9709 2.93007L4.94175 7.34799L3.43461 8.177C3.20934 8.30135 3.18253 8.51896 3.37561 8.66404C3.56333 8.80911 3.89587 8.82638 4.11577 8.70549L4.12113 8.70203L4.79157 8.32898V14.8056C4.79693 14.999 5.04365 15.1579 5.34401 15.1614H21.2896C21.59 15.1579 21.8367 15.0025 21.8421 14.8056V8.32898L22.5125 8.70203C22.609 8.75385 22.727 8.78493 22.8558 8.78493C23.0113 8.78493 23.1615 8.74003 23.2634 8.66404C23.4618 8.51551 23.4296 8.29789 23.2044 8.177ZM15.4649 14.4671H11.1741V10.7366H15.4649V14.4671ZM16.5376 14.4671V10.4015C16.5376 10.2115 16.3177 10.0457 16.0227 10.0457H10.6163C10.3213 10.0457 10.1014 10.2115 10.1014 10.4015V14.4671H5.86426V7.73831L13.3195 3.64854L20.7747 7.73831V14.4671H16.5376Z" fill="#031C2B"/>
</g>
<defs>
<clipPath id="clip0">
<rect width="24.8831" height="16.0253" fill="white" transform="translate(0.875488)"/>
</clipPath>
</defs>
</svg>
