<svg width="41" height="43" viewBox="0 0 41 43" fill="none" xmlns="http://www.w3.org/2000/svg">
<g clip-path="url(#clip0)">
<path d="M2.5065 3.13445C-0.645219 6.56422 -0.000170499 10.2076 -0.000170499 21.276C-0.000170499 30.4675 -1.53091 39.6818 6.4804 41.851C8.98205 42.5251 31.1477 42.5251 33.646 41.8475C36.9815 40.9459 39.6954 38.1114 40.0664 33.169C40.1182 32.4791 40.1182 10.085 40.0647 9.38121C39.6703 4.11664 36.5771 1.08255 32.5013 0.468025C31.5671 0.326213 31.38 0.284194 26.5872 0.27544C9.58699 0.284194 5.86042 -0.508906 2.5065 3.13445Z" fill="url(#paint0_linear)"/>
<path d="M20.0502 5.78724C13.9824 5.78724 8.22045 5.22 6.01959 11.1558C5.11051 13.6074 5.24253 16.7913 5.24253 21.3503C5.24253 25.3509 5.12054 29.1108 6.01959 31.5431C8.21543 37.4824 14.0242 36.9134 20.0469 36.9134C25.8574 36.9134 31.8483 37.5492 34.0759 31.5431C34.9866 29.0669 34.8529 25.9304 34.8529 21.3503C34.8529 15.2705 35.1721 11.3455 32.3663 8.39865C29.5254 5.41317 25.6836 5.78724 20.0436 5.78724H20.0502ZM18.7234 8.59183C31.3804 8.57075 32.9913 7.09207 32.1023 27.6339C31.7865 34.8991 26.5225 34.1018 20.0519 34.1018C8.25387 34.1018 7.91463 33.7471 7.91463 21.3433C7.91463 8.79554 8.85046 8.59885 18.7234 8.58831V8.59183ZM27.9546 11.1751C26.9737 11.1751 26.1782 12.0111 26.1782 13.0419C26.1782 14.0728 26.9737 14.9087 27.9546 14.9087C28.9355 14.9087 29.731 14.0728 29.731 13.0419C29.731 12.0111 28.9355 11.1751 27.9546 11.1751ZM20.0502 13.358C15.8507 13.358 12.4467 16.9371 12.4467 21.3503C12.4467 25.7636 15.8507 29.3409 20.0502 29.3409C24.2497 29.3409 27.6521 25.7636 27.6521 21.3503C27.6521 16.9371 24.2497 13.358 20.0502 13.358ZM20.0502 16.1626C26.5759 16.1626 26.5843 26.538 20.0502 26.538C13.5262 26.538 13.5162 16.1626 20.0502 16.1626Z" fill="white"/>
</g>
<defs>
<linearGradient id="paint0_linear" x1="2.5834" y1="39.6102" x2="41.3342" y2="7.59788" gradientUnits="userSpaceOnUse">
<stop stop-color="#FFDD55"/>
<stop offset="0.5" stop-color="#FF543E"/>
<stop offset="1" stop-color="#C837AB"/>
</linearGradient>
<clipPath id="clip0">
<rect width="40.1067" height="42.1479" fill="white" transform="translate(0 0.274658)"/>
</clipPath>
</defs>
</svg>
