<svg width="46" height="53" viewBox="0 0 46 53" fill="none" xmlns="http://www.w3.org/2000/svg">
<path d="M39.5429 23.3351V21.2931C39.9741 20.9496 40.3267 20.4885 40.57 19.9499C40.8132 19.4113 40.9398 18.8115 40.9386 18.2028V11.8848C41.1236 11.8848 41.3011 11.7991 41.432 11.6466C41.5629 11.4941 41.6364 11.2872 41.6364 11.0716V9.44508C41.6364 7.50393 40.9747 5.64229 39.7969 4.26969C38.6191 2.89709 37.0217 2.12598 35.356 2.12598C33.6904 2.12598 32.093 2.89709 30.9152 4.26969C29.7374 5.64229 29.0757 7.50393 29.0757 9.44508V10.2583H25.5866C25.4016 10.2583 25.2241 10.344 25.0932 10.4965C24.9624 10.649 24.8888 10.8559 24.8888 11.0716C24.8888 11.2872 24.9624 11.4941 25.0932 11.6466C25.2241 11.7991 25.4016 11.8848 25.5866 11.8848H29.7735V15.951C29.775 17.3194 30.1988 18.6417 30.9674 19.6762C31.7361 20.7107 32.7984 21.3885 33.9604 21.5859V23.2701H33.2626C31.9676 23.2718 30.726 23.8721 29.8102 24.9393C28.8945 26.0065 28.3794 27.4534 28.3779 28.9627V34.6553H26.9823V17.5774C26.9823 17.3617 26.9088 17.1549 26.7779 17.0024C26.647 16.8499 26.4695 16.7642 26.2845 16.7642H6.74567C6.56059 16.7642 6.3831 16.8499 6.25224 17.0024C6.12137 17.1549 6.04785 17.3617 6.04785 17.5774V37.095C6.04785 37.3107 6.12137 37.5176 6.25224 37.6701C6.3831 37.8226 6.56059 37.9083 6.74567 37.9083H13.0958C13.2577 38.8261 13.6863 39.6507 14.3091 40.2433C14.9319 40.8358 15.711 41.16 16.5151 41.1612H18.6085V43.6009C18.6085 43.8166 18.682 44.0234 18.8129 44.176C18.9438 44.3285 19.1212 44.4141 19.3063 44.4141H23.4932C23.6783 44.4141 23.8558 44.3285 23.9866 44.176C24.1175 44.0234 24.191 43.8166 24.191 43.6009V42.7877H28.3779V50.1068C28.3779 50.3225 28.4514 50.5293 28.5823 50.6818C28.7132 50.8343 28.8906 50.92 29.0757 50.92H43.032C43.2171 50.92 43.3946 50.8343 43.5254 50.6818C43.6563 50.5293 43.7298 50.3225 43.7298 50.1068V28.9627C43.7276 27.5952 43.3034 26.2743 42.5347 25.2412C41.766 24.208 40.7041 23.5315 39.5429 23.3351ZM30.4713 9.44508C30.4713 7.9353 30.986 6.48736 31.902 5.41978C32.8181 4.3522 34.0605 3.75244 35.356 3.75244C36.6515 3.75244 37.894 4.3522 38.81 5.41978C39.7261 6.48736 40.2407 7.9353 40.2407 9.44508V10.2583H30.4713V9.44508ZM36.0539 20.0171H34.6582C33.7332 20.0158 32.8464 19.587 32.1923 18.8247C31.5382 18.0625 31.1703 17.029 31.1692 15.951V11.8848H39.5429V18.1987C39.5443 18.5944 39.4504 18.9825 39.2719 19.3191C39.0934 19.6556 38.8375 19.9271 38.5332 20.1025C38.4172 20.1701 38.3196 20.274 38.2515 20.4025C38.1833 20.5311 38.1472 20.6792 38.1473 20.8304V23.2701H35.356V21.6436H36.0539C36.2389 21.6436 36.4164 21.5579 36.5473 21.4054C36.6782 21.2529 36.7517 21.046 36.7517 20.8304C36.7517 20.6147 36.6782 20.4078 36.5473 20.2553C36.4164 20.1028 36.2389 20.0171 36.0539 20.0171ZM17.9107 18.3907V24.1898L16.9024 23.4067C16.7877 23.3175 16.6529 23.2699 16.5151 23.2699C16.3772 23.2699 16.2424 23.3175 16.1278 23.4067L15.1194 24.1898V18.3907H17.9107ZM7.44348 18.3907H13.7238V25.7098C13.7238 25.857 13.7581 26.0015 13.823 26.1278C13.8879 26.2541 13.981 26.3575 14.0924 26.4269C14.2038 26.4964 14.3293 26.5293 14.4555 26.5222C14.5817 26.515 14.7038 26.4681 14.8089 26.3864L16.5151 25.0592L18.2212 26.3847C18.3262 26.4664 18.4482 26.5133 18.5743 26.5205C18.7004 26.5277 18.8257 26.495 18.9371 26.4257C19.0484 26.3564 19.1416 26.2533 19.2066 26.1272C19.2716 26.0011 19.3061 25.8569 19.3063 25.7098V18.3907H25.5866V34.6553H24.191V33.8421C24.191 33.6264 24.1175 33.4196 23.9866 33.2671C23.8558 33.1145 23.6783 33.0289 23.4932 33.0289H19.3063C19.1212 33.0289 18.9438 33.1145 18.8129 33.2671C18.682 33.4196 18.6085 33.6264 18.6085 33.8421V36.2818H7.44348V18.3907ZM16.5151 39.5347C16.0822 39.5341 15.6602 39.3775 15.3067 39.0863C14.9533 38.7951 14.6858 38.3836 14.5409 37.9083H18.6085V39.5347H16.5151ZM22.7954 42.7877H20.0041V34.6553H22.7954V42.7877ZM24.191 36.2818H31.867C32.4222 36.2818 32.9547 36.0248 33.3473 35.5672C33.7399 35.1097 33.9604 34.4892 33.9604 33.8421V30.5892C33.9604 29.9421 34.181 29.3216 34.5736 28.864C34.9662 28.4065 35.4986 28.1495 36.0539 28.1495C36.6091 28.1495 37.1415 28.4065 37.5341 28.864C37.9267 29.3216 38.1473 29.9421 38.1473 30.5892V35.4686C38.1458 36.9778 37.6307 38.4248 36.715 39.492C35.7992 40.5592 34.5577 41.1595 33.2626 41.1612H24.191V36.2818ZM33.2626 42.7877C34.9277 42.7855 36.524 42.0137 37.7014 40.6416C38.8788 39.2695 39.5411 37.4091 39.5429 35.4686V30.5892C39.5429 29.5107 39.1753 28.4765 38.521 27.7139C37.8667 26.9514 36.9792 26.523 36.0539 26.523C35.1285 26.523 34.241 26.9514 33.5867 27.7139C32.9324 28.4765 32.5648 29.5107 32.5648 30.5892V33.8421C32.5648 34.0578 32.4913 34.2646 32.3604 34.4171C32.2295 34.5697 32.052 34.6553 31.867 34.6553H29.7735V28.9627C29.7746 27.8847 30.1426 26.8512 30.7967 26.0889C31.4508 25.3266 32.3376 24.8978 33.2626 24.8965H38.8451C39.7701 24.8978 40.6569 25.3266 41.311 26.0889C41.9651 26.8512 42.3331 27.8847 42.3342 28.9627V46.0406H29.7735V42.7877H33.2626ZM42.3342 49.2935H29.7735V47.6671H42.3342V49.2935Z" fill="#FF64AE" fill-opacity="0.34"/>
</svg>
