<svg width="25" height="17" viewBox="0 0 25 17" fill="none" xmlns="http://www.w3.org/2000/svg">
<g clip-path="url(#clip0)">
<path d="M15.9741 8.62061H17.4321V9.55959H15.9741V8.62061Z" fill="#031C2B"/>
<path d="M12.6177 8.62061H14.0757V9.55959H12.6177V8.62061Z" fill="#031C2B"/>
<path d="M9.26123 8.62061H10.7192V9.55959H9.26123V8.62061Z" fill="#031C2B"/>
<path d="M24.9515 3.70228C24.9515 1.66084 22.3727 0 19.2028 0C16.8901 0 14.8923 0.884209 13.9809 2.15518H5.1382L4.80354 0H0.0683594V0.938982H3.48406L3.69333 2.28655L5.02497 10.8627C4.08845 11.074 3.4148 11.6487 3.4148 12.323C3.4148 13.1761 4.49246 13.8701 5.81705 13.8701H6.94495C6.82049 14.0568 6.75133 14.2624 6.75133 14.4782C6.75133 15.3313 7.82894 16.0253 9.15353 16.0253C10.4781 16.0253 11.5558 15.3313 11.5558 14.4782C11.5558 14.2624 11.4866 14.0569 11.3621 13.8701H15.3311C15.2066 14.0568 15.1374 14.2624 15.1374 14.4782C15.1374 15.3313 16.2151 16.0253 17.5397 16.0253C18.8643 16.0253 19.9419 15.3313 19.9419 14.4782C19.9419 14.2624 19.8728 14.0569 19.7483 13.8701H21.5357V12.9311H5.81705C5.2964 12.9311 4.8728 12.6583 4.8728 12.323C4.8728 11.9877 5.2964 11.7149 5.81705 11.7149H21.5358L22.2956 6.82186C23.8916 6.16332 24.9515 5.01104 24.9515 3.70228V3.70228ZM9.15348 15.0863C8.63283 15.0863 8.20928 14.8135 8.20928 14.4782C8.20928 14.1429 8.63283 13.8701 9.15348 13.8701C9.67413 13.8701 10.0977 14.1429 10.0977 14.4782C10.0977 14.8135 9.67413 15.0863 9.15348 15.0863ZM17.5396 15.0863C17.0189 15.0863 16.5953 14.8135 16.5953 14.4782C16.5953 14.1429 17.0189 13.8701 17.5396 13.8701C18.0602 13.8701 18.4838 14.1429 18.4838 14.4782C18.4838 14.8135 18.0602 15.0863 17.5396 15.0863ZM19.2028 0.938982C21.5688 0.938982 23.4935 2.1786 23.4935 3.70228C23.4935 5.22597 21.5688 6.46558 19.2028 6.46558C16.8369 6.46558 14.9122 5.22597 14.9122 3.70228C14.9122 2.1786 16.8369 0.938982 19.2028 0.938982V0.938982ZM20.2163 10.776H6.47674L5.284 3.09417H13.5321C13.4812 3.2921 13.4542 3.49517 13.4542 3.70228C13.4542 5.74372 16.033 7.40457 19.2028 7.40457C19.7428 7.40457 20.2655 7.3563 20.7613 7.26625L20.2163 10.776Z" fill="#031C2B"/>
<path d="M21.9929 3.14638L20.962 2.48242L18.7195 3.92664L17.4435 3.10494L16.4126 3.76889L18.7195 5.25458L21.9929 3.14638Z" fill="#031C2B"/>
</g>
<defs>
<clipPath id="clip0">
<rect width="24.8831" height="16.0253" fill="white" transform="translate(0.0683594)"/>
</clipPath>
</defs>
</svg>
