<svg width="41" height="45" viewBox="0 0 41 45" fill="none" xmlns="http://www.w3.org/2000/svg">
<path d="M34.3763 6.58769C26.5208 -2.19776 13.7865 -2.19565 5.93347 6.59252C-1.91959 15.3807 -1.9177 29.6269 5.93779 38.4123C13.7933 47.1978 26.5275 47.1956 34.3806 38.4075C38.1521 34.1869 40.2703 28.463 40.2691 22.4952C40.268 16.5283 38.1483 10.8063 34.3763 6.58769ZM30.504 31.3422C30.5031 31.3432 30.5023 31.3442 30.5013 31.3452V31.3377L29.4823 32.4702C28.1644 33.9632 26.245 34.5775 24.4207 34.0902C22.5827 33.5398 20.8355 32.6637 19.2452 31.4952C17.7678 30.4389 16.3986 29.204 15.1625 27.8127C14.0251 26.5496 13.0033 25.1627 12.1121 23.6727C11.1373 22.0694 10.3657 20.3229 9.81934 18.4827C9.19296 16.3209 9.71202 13.9489 11.1602 12.3552L12.3535 11.0203C12.6852 10.6474 13.2243 10.6461 13.5575 11.0173C13.5584 11.0182 13.5593 11.0192 13.5602 11.0203L17.3278 15.2352C17.6611 15.6064 17.6623 16.2095 17.3305 16.5822C17.3296 16.5832 17.3288 16.5842 17.3278 16.5852L15.1155 19.0602C14.4807 19.7627 14.4009 20.8789 14.9278 21.6853C15.728 22.9138 16.6135 24.0698 17.5759 25.1428C18.649 26.3485 19.8156 27.4452 21.062 28.4203C21.7822 28.9823 22.7586 28.8875 23.3816 28.1953L25.5201 25.7653C25.8519 25.3925 26.391 25.3912 26.7242 25.7623C26.725 25.7633 26.7259 25.7643 26.7268 25.7653L30.5012 29.9953C30.8346 30.3664 30.8358 30.9694 30.504 31.3422Z" fill="#FF64AE" fill-opacity="0.34"/>
</svg>
