<svg width="46" height="54" viewBox="0 0 46 54" fill="none" xmlns="http://www.w3.org/2000/svg">
<path d="M27.2156 49.494H25.4473C25.2872 49.494 25.1337 49.4199 25.0205 49.288C24.9073 49.1561 24.8438 48.9772 24.8438 48.7907C24.8438 48.6042 24.9073 48.4253 25.0205 48.2934C25.1337 48.1615 25.2872 48.0874 25.4473 48.0874H27.2156C27.3756 48.0874 27.5291 48.1615 27.6423 48.2934C27.7555 48.4253 27.8191 48.6042 27.8191 48.7907C27.8191 48.9772 27.7555 49.1561 27.6423 49.288C27.5291 49.4199 27.3756 49.494 27.2156 49.494Z" fill="#FF64AE" fill-opacity="0.34"/>
<path d="M43.2084 49.4941H37.4388C37.2788 49.4941 37.1253 49.42 37.0121 49.2881C36.8989 49.1562 36.8353 48.9773 36.8353 48.7908C36.8353 48.6042 36.8989 48.4253 37.0121 48.2934C37.1253 48.1615 37.2788 48.0874 37.4388 48.0874H42.6049V18.7512H2.77295V48.0874H21.2164C21.3764 48.0874 21.5299 48.1615 21.6431 48.2934C21.7563 48.4253 21.8199 48.6042 21.8199 48.7908C21.8199 48.9773 21.7563 49.1562 21.6431 49.2881C21.5299 49.42 21.3764 49.4941 21.2164 49.4941H2.16943C2.00937 49.4941 1.85586 49.42 1.74268 49.2881C1.6295 49.1562 1.56592 48.9773 1.56592 48.7908V18.0479C1.56592 17.8614 1.6295 17.6825 1.74268 17.5506C1.85586 17.4187 2.00937 17.3446 2.16943 17.3446H43.2084C43.3685 17.3446 43.522 17.4187 43.6352 17.5506C43.7484 17.6825 43.812 17.8614 43.812 18.0479V48.7908C43.812 48.9773 43.7484 49.1562 43.6352 49.2881C43.522 49.42 43.3685 49.4941 43.2084 49.4941Z" fill="#FF64AE" fill-opacity="0.34"/>
<path d="M33.2143 49.494H31.4399C31.2799 49.494 31.1264 49.4199 31.0132 49.288C30.9 49.1561 30.8364 48.9772 30.8364 48.7907C30.8364 48.6042 30.9 48.4253 31.0132 48.2934C31.1264 48.1615 31.2799 48.0874 31.4399 48.0874H33.2143C33.3743 48.0874 33.5279 48.1615 33.641 48.2934C33.7542 48.4253 33.8178 48.6042 33.8178 48.7907C33.8178 48.9772 33.7542 49.1561 33.641 49.288C33.5279 49.4199 33.3743 49.494 33.2143 49.494Z" fill="#FF64AE" fill-opacity="0.34"/>
<path d="M43.2083 18.751H2.16932C2.0625 18.751 1.9576 18.718 1.86533 18.6552C1.77306 18.5925 1.69673 18.5024 1.64414 18.394C1.59154 18.2857 1.56457 18.163 1.56597 18.0385C1.56737 17.914 1.59709 17.7922 1.65211 17.6855L8.24732 4.8749C8.301 4.77077 8.37691 4.68461 8.46766 4.62483C8.55841 4.56505 8.66089 4.53368 8.76513 4.53378H36.6125C36.7168 4.53368 36.8192 4.56505 36.91 4.62483C37.0007 4.68461 37.0766 4.77077 37.1303 4.8749L43.7255 17.6855C43.7806 17.7922 43.8103 17.914 43.8117 18.0385C43.8131 18.163 43.7861 18.2857 43.7335 18.394C43.6809 18.5024 43.6046 18.5925 43.5123 18.6552C43.4201 18.718 43.3151 18.751 43.2083 18.751ZM3.23513 17.3444H42.1425L36.2709 5.94046H9.10974L3.23513 17.3444Z" fill="#FF64AE" fill-opacity="0.34"/>
<path d="M27.0861 18.751H18.2917C18.2051 18.751 18.1195 18.7292 18.0407 18.6872C17.962 18.6452 17.8919 18.5839 17.8353 18.5075C17.7786 18.4311 17.7368 18.3413 17.7126 18.2444C17.6883 18.1475 17.6823 18.0456 17.6949 17.9457L19.3093 5.13514C19.3303 4.96799 19.4022 4.81524 19.5119 4.70482C19.6216 4.5944 19.7618 4.53369 19.9067 4.53378H25.476C25.6209 4.53369 25.7611 4.5944 25.8708 4.70482C25.9805 4.81524 26.0524 4.96799 26.0734 5.13514L27.6854 17.9457C27.698 18.0456 27.692 18.1475 27.6677 18.2444C27.6435 18.3413 27.6017 18.4311 27.545 18.5075C27.4884 18.5839 27.4183 18.6452 27.3396 18.6872C27.2608 18.7292 27.1752 18.751 27.0886 18.751H27.0861ZM18.9906 17.3444H26.3873L24.9521 5.94046H20.4258L18.9906 17.3444Z" fill="#FF64AE" fill-opacity="0.34"/>
<path d="M27.0859 28.9996C26.9667 28.9996 26.8502 28.9585 26.751 28.8814L22.6887 25.7255L18.6265 28.8814C18.5356 28.9521 18.4299 28.9927 18.3208 28.9988C18.2116 29.005 18.1031 28.9766 18.0068 28.9165C17.9104 28.8564 17.8299 28.767 17.7738 28.6578C17.7176 28.5485 17.688 28.4236 17.688 28.2962V18.0479C17.688 17.8614 17.7516 17.6825 17.8648 17.5506C17.9779 17.4187 18.1314 17.3446 18.2915 17.3446H27.0859C27.246 17.3446 27.3995 17.4187 27.5127 17.5506C27.6259 17.6825 27.6894 17.8614 27.6894 18.0479V28.2962C27.6894 28.4828 27.6259 28.6617 27.5127 28.7936C27.3995 28.9255 27.246 28.9996 27.0859 28.9996ZM22.6887 24.1768C22.8079 24.1771 22.9243 24.2182 23.0237 24.2949L26.4824 26.9824V18.7512H18.895V26.9803L22.3538 24.2928C22.4533 24.2168 22.5697 24.1765 22.6887 24.1768Z" fill="#FF64AE" fill-opacity="0.34"/>
<path d="M14.458 44.3878C14.2979 44.3878 14.1444 44.3137 14.0313 44.1818C13.9181 44.0499 13.8545 43.871 13.8545 43.6845V36.1433C13.8545 35.9568 13.9181 35.7779 14.0313 35.646C14.1444 35.5141 14.2979 35.44 14.458 35.44C14.6181 35.44 14.7716 35.5141 14.8848 35.646C14.9979 35.7779 15.0615 35.9568 15.0615 36.1433V43.6845C15.0615 43.871 14.9979 44.0499 14.8848 44.1818C14.7716 44.3137 14.6181 44.3878 14.458 44.3878Z" fill="#FF64AE" fill-opacity="0.34"/>
<path d="M16.2013 38.8315C16.0412 38.8314 15.8877 38.7573 15.7746 38.6254L14.4583 37.0914L13.1414 38.624C13.0276 38.7521 12.8752 38.823 12.7169 38.8214C12.5587 38.8198 12.4073 38.7458 12.2954 38.6154C12.1835 38.485 12.1201 38.3086 12.1187 38.1242C12.1173 37.9398 12.1781 37.7621 12.2881 37.6295L14.0316 35.5961C14.1448 35.4643 14.2983 35.3902 14.4583 35.3902C14.6183 35.3902 14.7718 35.4643 14.885 35.5961L16.6279 37.6274C16.7134 37.7255 16.7717 37.8512 16.7956 37.9882C16.8195 38.1252 16.8078 38.2674 16.762 38.3966C16.7162 38.5258 16.6384 38.6362 16.5385 38.7137C16.4386 38.7911 16.3212 38.8322 16.2013 38.8315Z" fill="#FF64AE" fill-opacity="0.34"/>
<path d="M7.771 44.3878C7.61093 44.3878 7.45743 44.3137 7.34425 44.1818C7.23107 44.0499 7.16748 43.871 7.16748 43.6845V36.1433C7.16748 35.9568 7.23107 35.7779 7.34425 35.646C7.45743 35.5141 7.61093 35.44 7.771 35.44C7.93106 35.44 8.08457 35.5141 8.19775 35.646C8.31093 35.7779 8.37451 35.9568 8.37451 36.1433V43.6845C8.37451 43.871 8.31093 44.0499 8.19775 44.1818C8.08457 44.3137 7.93106 44.3878 7.771 44.3878Z" fill="#FF64AE" fill-opacity="0.34"/>
<path d="M6.02819 38.8315C5.90885 38.8315 5.79219 38.7902 5.69296 38.7129C5.59374 38.6356 5.51641 38.5258 5.47074 38.3973C5.42507 38.2688 5.41312 38.1274 5.43639 37.991C5.45967 37.8546 5.51713 37.7292 5.60151 37.6309L7.34446 35.5961C7.45763 35.4643 7.61111 35.3902 7.77114 35.3902C7.93117 35.3902 8.08465 35.4643 8.19783 35.5961L9.94078 37.6274C10.0507 37.76 10.1115 37.9377 10.1102 38.1221C10.1088 38.3065 10.0453 38.4829 9.93342 38.6133C9.82153 38.7437 9.67016 38.8177 9.51192 38.8193C9.35368 38.8209 9.20123 38.75 9.08741 38.6219L7.77114 37.0879L6.45427 38.624C6.34146 38.7563 6.1882 38.8309 6.02819 38.8315Z" fill="#FF64AE" fill-opacity="0.34"/>
</svg>
