<svg width="59" height="64" viewBox="0 0 59 64" fill="none" xmlns="http://www.w3.org/2000/svg">
<g clip-path="url(#clip0)">
<path d="M29.5679 0C13.71 0 0.735352 14.3494 0.735352 31.8876C0.735352 49.4259 13.71 63.7753 29.5679 63.7753C45.4258 63.7753 58.4005 49.4259 58.4005 31.8876C58.4005 14.3494 45.4258 0 29.5679 0ZM29.5679 9.56629C34.4695 9.56629 38.2177 13.7117 38.2177 19.1326C38.2177 24.5535 34.4695 28.6989 29.5679 28.6989C24.6664 28.6989 20.9181 24.5535 20.9181 19.1326C20.9181 13.7117 24.6664 9.56629 29.5679 9.56629ZM29.5679 54.8468C22.3598 54.8468 16.0166 50.7015 12.2684 44.6427C12.2684 38.2652 23.8014 34.7575 29.5679 34.7575C35.3344 34.7575 46.8675 38.2652 46.8675 44.6427C43.1192 50.7014 36.7761 54.8468 29.5679 54.8468Z" fill="black"/>
</g>
<defs>
<clipPath id="clip0">
<rect width="57.6651" height="63.7753" fill="white" transform="translate(0.735352)"/>
</clipPath>
</defs>
</svg>
