<svg width="40" height="43" viewBox="0 0 40 43" fill="none" xmlns="http://www.w3.org/2000/svg">
<g clip-path="url(#clip0)">
<path d="M20 42.486C31.0457 42.486 40 33.0509 40 21.4121C40 9.77326 31.0457 0.338135 20 0.338135C8.9543 0.338135 0 9.77326 0 21.4121C0 33.0509 8.9543 42.486 20 42.486Z" fill="#039BE5"/>
<path d="M9.15162 20.9555L28.435 13.1213C29.33 12.7806 30.1116 13.3513 29.8216 14.7773L29.8233 14.7756L26.54 31.0745C26.2966 32.2301 25.645 32.5111 24.7333 31.9666L19.7333 28.0838L17.3216 30.5319C17.0549 30.8128 16.83 31.0499 16.3133 31.0499L16.6683 25.6884L25.9349 16.8672C26.3383 16.4931 25.8449 16.2824 25.3133 16.6547L13.8616 24.2518L8.92495 22.6291C7.85328 22.2709 7.82995 21.4999 9.15162 20.9555Z" fill="white"/>
</g>
<defs>
<clipPath id="clip0">
<rect width="40" height="42.1479" fill="white" transform="translate(0 0.338135)"/>
</clipPath>
</defs>
</svg>
